<svg xmlns="http://www.w3.org/2000/svg" width="1012" height="638" viewBox="0 0 1012 638">
  <defs>
    <linearGradient id="bg" x1="0" y1="0" x2="1" y2="1">
      <stop offset="0" stop-color="#0b6bb8"/>
      <stop offset="1" stop-color="#053f70"/>
    </linearGradient>
  </defs>
  <rect width="1012" height="638" rx="36" fill="url(#bg)"/>
  <rect x="40" y="40" width="932" height="120" rx="14" fill="#ffffff" opacity="0.08"/>

  <!-- Brand: Cross + Shield marks -->
  <path d="M 690 64 h 28 v 24 h 24 v 28 h -24 v 24 h -28 v -24 h -24 v -28 h 24 z" fill="#ffffff"/>
  <path d="M 752 64 h 52 c 0 36 -8 60 -26 76 c -18 -16 -26 -40 -26 -76 z" fill="#ffffff"/>
  <text x="64" y="92" font-family="Arial, sans-serif" font-size="40" font-weight="700" fill="#ffffff">BlueCross</text>
  <text x="64" y="138" font-family="Arial, sans-serif" font-size="40" font-weight="700" fill="#ffffff">BlueShield</text>
  <text x="824" y="92" font-family="Arial, sans-serif" font-size="22" fill="#bcdcf2">SYNTHETIC</text>
  <text x="824" y="124" font-family="Arial, sans-serif" font-size="22" fill="#bcdcf2">DEMO CARD</text>

  <text x="64" y="268" font-family="Arial, sans-serif" font-size="24" fill="#a7d0ee">MEMBER</text>
  <text x="64" y="312" font-family="Arial, sans-serif" font-size="42" font-weight="700" fill="#ffffff">Daniel T. Okafor</text>

  <text x="64" y="402" font-family="Arial, sans-serif" font-size="24" fill="#a7d0ee">MEMBER ID</text>
  <text x="64" y="446" font-family="monospace" font-size="40" font-weight="700" fill="#ffffff">XYH901447632</text>

  <text x="64" y="528" font-family="Arial, sans-serif" font-size="24" fill="#a7d0ee">GROUP</text>
  <text x="64" y="568" font-family="monospace" font-size="36" font-weight="700" fill="#ffffff">100214</text>

  <text x="420" y="528" font-family="Arial, sans-serif" font-size="24" fill="#a7d0ee">RX BIN</text>
  <text x="420" y="568" font-family="monospace" font-size="36" font-weight="700" fill="#ffffff">003858</text>

  <text x="720" y="528" font-family="Arial, sans-serif" font-size="24" fill="#a7d0ee">RX PCN</text>
  <text x="720" y="568" font-family="monospace" font-size="36" font-weight="700" fill="#ffffff">A4</text>
</svg>
